<?xml version="1.0" encoding="UTF-8"?>
<svg version="1.1" xmlns="http://www.w3.org/2000/svg" width="250" height="250">
<path d="M0 0 C0.82656097 0.00425995 1.65312195 0.0085199 2.50473022 0.01290894 C15.59423613 0.10649446 27.77147897 1.12088391 40.1875 5.5625 C41.30342529 5.94801025 41.30342529 5.94801025 42.44189453 6.34130859 C57.75199745 11.75484401 70.96972575 19.90402166 83.1875 30.5625 C83.89261719 31.13484375 84.59773437 31.7071875 85.32421875 32.296875 C91.09849998 37.06150784 95.65216 42.62928124 100.1875 48.5625 C100.9196875 49.50609375 101.651875 50.4496875 102.40625 51.421875 C113.49644023 66.49516171 120.27388542 83.35964148 124.1875 101.5625 C124.36418213 102.30177734 124.54086426 103.04105469 124.72290039 103.80273438 C125.3298367 107.40799345 125.40782852 110.97877183 125.4609375 114.625 C125.47979759 115.79486198 125.47979759 115.79486198 125.4990387 116.98835754 C125.71624683 133.70425982 125.88983918 149.62227427 120.1875 165.5625 C119.93049316 166.3064502 119.67348633 167.05040039 119.40869141 167.81689453 C114.00049997 183.11188406 105.86140815 196.37469824 95.1875 208.5625 C94.21876953 209.73039062 94.21876953 209.73039062 93.23046875 210.921875 C74.98719987 232.47196859 46.99025837 246.64588693 19.1875 250.5625 C16.45968548 250.6996459 13.75619145 250.79591095 11.02734375 250.8359375 C10.24885071 250.84851089 9.47035767 250.86108429 8.66827393 250.8740387 C-8.0178106 251.09134324 -23.90075853 251.25464942 -39.8125 245.5625 C-40.5564502 245.30549316 -41.30040039 245.04848633 -42.06689453 244.78369141 C-57.37699745 239.37015599 -70.59472575 231.22097834 -82.8125 220.5625 C-83.51761719 219.99015625 -84.22273438 219.4178125 -84.94921875 218.828125 C-90.72349998 214.06349216 -95.27716 208.49571876 -99.8125 202.5625 C-100.5446875 201.61890625 -101.276875 200.6753125 -102.03125 199.703125 C-113.12144023 184.62983829 -119.89888542 167.76535852 -123.8125 149.5625 C-123.98918213 148.82322266 -124.16586426 148.08394531 -124.34790039 147.32226562 C-124.9548367 143.71700655 -125.03282852 140.14622817 -125.0859375 136.5 C-125.09851089 135.72009201 -125.11108429 134.94018402 -125.1240387 134.13664246 C-125.34124683 117.42074018 -125.51483918 101.50272573 -119.8125 85.5625 C-119.55549316 84.8185498 -119.29848633 84.07459961 -119.03369141 83.30810547 C-113.62015599 67.99800255 -105.47097834 54.78027425 -94.8125 42.5625 C-94.24015625 41.85738281 -93.6678125 41.15226562 -93.078125 40.42578125 C-88.3144096 34.65261187 -82.71494354 30.13187466 -76.8125 25.5625 C-75.95785156 24.88058594 -75.10320312 24.19867187 -74.22265625 23.49609375 C-52.84260356 7.06721116 -26.65674772 -0.29631718 0 0 Z " fill="#FEFEFD" transform="translate(124.8125,-0.5625)"/>
<path d="M0 0 C0.82656097 0.00425995 1.65312195 0.0085199 2.50473022 0.01290894 C15.59423613 0.10649446 27.77147897 1.12088391 40.1875 5.5625 C41.30342529 5.94801025 41.30342529 5.94801025 42.44189453 6.34130859 C57.75199745 11.75484401 70.96972575 19.90402166 83.1875 30.5625 C83.89261719 31.13484375 84.59773437 31.7071875 85.32421875 32.296875 C91.09849998 37.06150784 95.65216 42.62928124 100.1875 48.5625 C100.9196875 49.50609375 101.651875 50.4496875 102.40625 51.421875 C113.49644023 66.49516171 120.27388542 83.35964148 124.1875 101.5625 C124.36418213 102.30177734 124.54086426 103.04105469 124.72290039 103.80273438 C125.3298367 107.40799345 125.40782852 110.97877183 125.4609375 114.625 C125.47979759 115.79486198 125.47979759 115.79486198 125.4990387 116.98835754 C125.71624683 133.70425982 125.88983918 149.62227427 120.1875 165.5625 C119.93049316 166.3064502 119.67348633 167.05040039 119.40869141 167.81689453 C114.00049997 183.11188406 105.86140815 196.37469824 95.1875 208.5625 C94.21876953 209.73039062 94.21876953 209.73039062 93.23046875 210.921875 C74.98719987 232.47196859 46.99025837 246.64588693 19.1875 250.5625 C16.45968548 250.6996459 13.75619145 250.79591095 11.02734375 250.8359375 C10.24885071 250.84851089 9.47035767 250.86108429 8.66827393 250.8740387 C-8.0178106 251.09134324 -23.90075853 251.25464942 -39.8125 245.5625 C-40.5564502 245.30549316 -41.30040039 245.04848633 -42.06689453 244.78369141 C-57.37699745 239.37015599 -70.59472575 231.22097834 -82.8125 220.5625 C-83.51761719 219.99015625 -84.22273438 219.4178125 -84.94921875 218.828125 C-90.72349998 214.06349216 -95.27716 208.49571876 -99.8125 202.5625 C-100.5446875 201.61890625 -101.276875 200.6753125 -102.03125 199.703125 C-113.12144023 184.62983829 -119.89888542 167.76535852 -123.8125 149.5625 C-123.98918213 148.82322266 -124.16586426 148.08394531 -124.34790039 147.32226562 C-124.9548367 143.71700655 -125.03282852 140.14622817 -125.0859375 136.5 C-125.09851089 135.72009201 -125.11108429 134.94018402 -125.1240387 134.13664246 C-125.34124683 117.42074018 -125.51483918 101.50272573 -119.8125 85.5625 C-119.55549316 84.8185498 -119.29848633 84.07459961 -119.03369141 83.30810547 C-113.62015599 67.99800255 -105.47097834 54.78027425 -94.8125 42.5625 C-94.24015625 41.85738281 -93.6678125 41.15226562 -93.078125 40.42578125 C-88.3144096 34.65261187 -82.71494354 30.13187466 -76.8125 25.5625 C-75.95785156 24.88058594 -75.10320312 24.19867187 -74.22265625 23.49609375 C-52.84260356 7.06721116 -26.65674772 -0.29631718 0 0 Z M-26.8125 17.5625 C-27.85792969 17.82933594 -28.90335937 18.09617187 -29.98046875 18.37109375 C-48.83160889 23.53736236 -64.88439996 34.13541075 -78.8125 47.5625 C-79.47121094 48.15804687 -80.12992188 48.75359375 -80.80859375 49.3671875 C-99.14291423 66.3888892 -109.76958391 93.7229756 -111.23828125 118.28125 C-112.12450149 143.86136418 -105.9162981 168.68569463 -90.8125 189.5625 C-90.23242188 190.36429688 -89.65234375 191.16609375 -89.0546875 191.9921875 C-72.289855 213.94780496 -49.87362737 228.72861769 -22.8125 234.5625 C-22.06226562 234.73692627 -21.31203125 234.91135254 -20.5390625 235.09106445 C6.66082944 241.09341028 35.71588534 234.40080854 59.1875 220.0625 C85.4143249 202.29851662 103.24127809 177.38654271 109.64282227 146.17871094 C115.51078779 114.35956426 107.57980493 85.53275612 89.58203125 59.21484375 C81.94174503 48.82028151 72.21148949 39.26781319 61.1875 32.5625 C60.09566406 31.89605469 59.00382813 31.22960937 57.87890625 30.54296875 C32.81489479 15.57056551 1.69596263 9.19470474 -26.8125 17.5625 Z " fill="#ACE731" transform="translate(124.8125,-0.5625)"/>
<path d="M0 0 C3.5811568 3.36089029 6.17456142 6.5894484 8.609375 10.84765625 C8.9332872 11.4079805 9.2571994 11.96830475 9.59092712 12.54560852 C10.28727859 13.75161743 10.98021468 14.95960376 11.67001343 16.16937256 C13.53529513 19.43905764 15.42761252 22.69307879 17.31640625 25.94921875 C17.70419754 26.61922913 18.09198883 27.2892395 18.49153137 27.97955322 C22.46586106 34.83367588 26.56371787 41.61007734 30.6875 48.375 C31.39028179 49.53056023 32.0930002 50.686159 32.7956543 51.84179688 C36.23609371 57.49478929 39.69780884 63.13418357 43.1796875 68.76171875 C43.83493408 69.82535645 44.49018066 70.88899414 45.1652832 71.98486328 C46.40020071 73.98812799 47.64064662 75.98799866 48.88745117 77.98388672 C49.43119385 78.86705566 49.97493652 79.75022461 50.53515625 80.66015625 C51.013479 81.42980713 51.49180176 82.19945801 51.98461914 82.99243164 C53 85 53 85 53 88 C52.13503906 88.47566406 51.27007812 88.95132813 50.37890625 89.44140625 C39.3968284 95.52881106 28.63455848 101.96540654 17.8828125 108.44921875 C16.40796387 109.33746338 16.40796387 109.33746338 14.90332031 110.24365234 C12.96066286 111.41885228 11.02251674 112.60154077 9.08886719 113.79150391 C8.19071289 114.34112793 7.29255859 114.89075195 6.3671875 115.45703125 C5.5716748 115.94792236 4.77616211 116.43881348 3.95654297 116.94458008 C2 118 2 118 0 118 C-0.33 100.18 -0.66 82.36 -1 64 C-13.42989518 69.74293883 -13.42989518 69.74293883 -25.85913086 75.48730469 C-27.4360116 76.2155458 -29.01291447 76.94373899 -30.58984375 77.671875 C-31.38588013 78.04006348 -32.1819165 78.40825195 -33.0020752 78.78759766 C-35.33252983 79.8632469 -37.66564089 80.93285384 -40 82 C-40.83056915 82.38240845 -41.66113831 82.76481689 -42.51687622 83.15881348 C-43.32414154 83.52567261 -44.13140686 83.89253174 -44.96313477 84.27050781 C-46.05393089 84.76880096 -46.05393089 84.76880096 -47.16676331 85.27716064 C-49 86 -49 86 -51 86 C-49.56594155 82.13859778 -47.76853075 78.70214215 -45.68359375 75.15234375 C-45.35543671 74.5920195 -45.02727966 74.03169525 -44.68917847 73.45439148 C-43.60907486 71.61317035 -42.52355706 69.77521484 -41.4375 67.9375 C-40.67402185 66.64049192 -39.91059495 65.34345366 -39.1472168 64.04638672 C-31.89731879 51.74974393 -24.49415402 39.54740385 -17.05322266 27.36572266 C-14.98161793 23.9698674 -12.91745004 20.56967476 -10.85546875 17.16796875 C-10.20473389 16.09530762 -9.55399902 15.02264648 -8.88354492 13.91748047 C-7.65501024 11.89226932 -6.42727054 9.86657564 -5.20043945 7.84033203 C-4.65991943 6.95071777 -4.11939941 6.06110352 -3.5625 5.14453125 C-3.08941406 4.36440674 -2.61632812 3.58428223 -2.12890625 2.78051758 C-1 1 -1 1 0 0 Z " fill="#91C22A" transform="translate(124,39)"/>
<path d="M0 0 C6.87942678 3.74836276 13.63041454 7.69967549 20.3637085 11.7036438 C22.15388452 12.76715985 23.94611833 13.82713683 25.73876953 14.88647461 C30.83243996 17.90039125 35.91710257 20.92151533 40.921875 24.08203125 C41.60749512 24.5109668 42.29311523 24.93990234 42.99951172 25.38183594 C44.73356859 26.47346559 46.45712948 27.58172053 48.1796875 28.69140625 C51.51829238 30.24048192 52.53407419 29.9720339 56 29 C58.08775503 28.01589891 58.08775503 28.01589891 60.08984375 26.734375 C61.25060425 26.02667969 61.25060425 26.02667969 62.43481445 25.3046875 C63.26070068 24.79164063 64.08658691 24.27859375 64.9375 23.75 C66.72084755 22.66062855 68.50472184 21.57211902 70.2890625 20.484375 C71.21879883 19.91525391 72.14853516 19.34613281 73.10644531 18.75976562 C77.98177652 15.79474813 82.89712982 12.89798833 87.8125 10 C88.72443115 9.46084961 89.6363623 8.92169922 90.57592773 8.36621094 C95.36296078 5.53938731 100.16500703 2.74400692 105 0 C103.61617496 2.92574284 102.02802286 5.52410237 100.1640625 8.16796875 C99.31896118 9.37090576 99.31896118 9.37090576 98.45678711 10.59814453 C97.85229736 11.45263184 97.24780762 12.30711914 96.625 13.1875 C95.68442749 14.52337158 95.68442749 14.52337158 94.72485352 15.88623047 C93.43542648 17.716816 92.14481447 19.54656742 90.85302734 21.37548828 C89.18627551 23.73617105 87.52373442 26.09972873 85.86328125 28.46484375 C81.30187689 34.95450558 76.70680634 41.4162098 72.04199219 47.83203125 C65.80296505 56.41389166 59.80345982 65.1179554 54 74 C49.46469176 72.49172197 47.54221977 68.80655557 45.0625 65 C44.08409478 63.53637888 43.10354254 62.07419122 42.12109375 60.61328125 C41.61046387 59.85225098 41.09983398 59.0912207 40.57373047 58.30712891 C38.00520709 54.54160829 35.31366415 50.86770525 32.625 47.1875 C27.54967992 40.21892123 22.66129756 33.14110387 17.83154297 26.00073242 C13.6428411 19.84670032 9.24559854 13.87544111 4.69311523 7.98583984 C2.66047773 5.33614546 1.06447511 3.19342533 0 0 Z " fill="#C1EB69" transform="translate(72,136)"/>
<path d="M0 0 C2 2 2 2 2.24609566 4.05771065 C2.24333028 5.3380811 2.24333028 5.3380811 2.24050903 6.64431763 C2.24325836 7.62310883 2.24600769 8.60190002 2.24884033 9.61035156 C2.24164978 10.68784668 2.23445923 11.7653418 2.22705078 12.87548828 C2.22734283 14.00719452 2.22763489 15.13890076 2.22793579 16.30490112 C2.22653812 20.0601152 2.21095626 23.81513292 2.1953125 27.5703125 C2.19158393 30.16820162 2.18873622 32.76609213 2.18673706 35.36398315 C2.17987089 41.5121659 2.16409462 47.66026713 2.14403808 53.80841911 C2.12170136 60.80711315 2.11069127 67.80581054 2.10064721 74.80453134 C2.07972897 89.20305902 2.04453909 103.60152699 2 118 C1.34 118 0.68 118 0 118 C-0.33 100.18 -0.66 82.36 -1 64 C-13.42989518 69.74293883 -13.42989518 69.74293883 -25.85913086 75.48730469 C-27.4360116 76.2155458 -29.01291447 76.94373899 -30.58984375 77.671875 C-31.38588013 78.04006348 -32.1819165 78.40825195 -33.0020752 78.78759766 C-35.33252983 79.8632469 -37.66564089 80.93285384 -40 82 C-40.83056915 82.38240845 -41.66113831 82.76481689 -42.51687622 83.15881348 C-43.32414154 83.52567261 -44.13140686 83.89253174 -44.96313477 84.27050781 C-46.05393089 84.76880096 -46.05393089 84.76880096 -47.16676331 85.27716064 C-49 86 -49 86 -51 86 C-49.56594155 82.13859778 -47.76853075 78.70214215 -45.68359375 75.15234375 C-45.35543671 74.5920195 -45.02727966 74.03169525 -44.68917847 73.45439148 C-43.60907486 71.61317035 -42.52355706 69.77521484 -41.4375 67.9375 C-40.67402185 66.64049192 -39.91059495 65.34345366 -39.1472168 64.04638672 C-31.89731879 51.74974393 -24.49415402 39.54740385 -17.05322266 27.36572266 C-14.98161793 23.9698674 -12.91745004 20.56967476 -10.85546875 17.16796875 C-10.20473389 16.09530762 -9.55399902 15.02264648 -8.88354492 13.91748047 C-7.65501024 11.89226932 -6.42727054 9.86657564 -5.20043945 7.84033203 C-4.65991943 6.95071777 -4.11939941 6.06110352 -3.5625 5.14453125 C-3.08941406 4.36440674 -2.61632812 3.58428223 -2.12890625 2.78051758 C-1 1 -1 1 0 0 Z " fill="#C2EC69" transform="translate(124,39)"/>
<path d="M0 0 C0 18.15 0 36.3 0 55 C-12.37219167 48.25153181 -12.37219167 48.25153181 -17.99609375 44.94140625 C-18.59575455 44.58916489 -19.19541534 44.23692352 -19.81324768 43.87400818 C-21.68894982 42.77178013 -23.5632748 41.66723714 -25.4375 40.5625 C-26.6828465 39.82991456 -27.92828889 39.09749209 -29.17382812 38.36523438 C-31.00940262 37.28607546 -32.84491457 36.20681255 -34.68002319 35.12686157 C-40.44413161 31.73540526 -46.22036979 28.36494011 -52 25 C-51.505 23.515 -51.505 23.515 -51 22 C-49.02671655 21.25797786 -47.0184951 20.60837652 -45 20 C-42.32499371 18.88761938 -39.7028929 17.66259421 -37.07421875 16.4453125 C-36.32719193 16.10249237 -35.5801651 15.75967224 -34.8105011 15.40646362 C-32.43481678 14.31555229 -30.06110171 13.22043421 -27.6875 12.125 C-24.56685552 10.68912652 -21.44554879 9.25469502 -18.32421875 7.8203125 C-17.58380341 7.47993958 -16.84338806 7.13956665 -16.08053589 6.78887939 C-1.30300563 0 -1.30300563 0 0 0 Z " fill="#E2F6B8" transform="translate(124,102)"/>
<path d="M0 0 C4.70683859 0.94136772 8.53133839 2.45054855 12.828125 4.45703125 C13.57656677 4.80126633 14.32500854 5.1455014 15.09613037 5.50016785 C17.48309904 6.59927607 19.86660553 7.70566569 22.25 8.8125 C23.83700697 9.54542576 25.42424445 10.27785263 27.01171875 11.00976562 C27.78237671 11.36521454 28.55303467 11.72066345 29.3470459 12.08688354 C30.86403109 12.78641726 32.38103918 13.4859013 33.89807129 14.18533325 C34.61426636 14.51556488 35.33046143 14.84579651 36.06835938 15.18603516 C36.74632568 15.49849182 37.42429199 15.81094849 38.12280273 16.13287354 C39.75351016 16.8861399 41.38185306 17.64452102 43.00976562 18.40380859 C47.32480804 20.42671589 47.32480804 20.42671589 52 21 C52 21.99 52 22.98 52 24 C51.13503906 24.47566406 50.27007812 24.95132813 49.37890625 25.44140625 C34.20709342 33.85097243 19.06866838 42.55271894 4.62109375 52.16113281 C3 53 3 53 0 53 C0 35.51 0 18.02 0 0 Z " fill="#A3DA2E" transform="translate(125,103)"/>
<path d="M0 0 C0 3.36897864 -0.41199779 3.92536315 -2.3515625 6.52734375 C-2.86589844 7.22666016 -3.38023437 7.92597656 -3.91015625 8.64648438 C-4.47605469 9.40251953 -5.04195312 10.15855469 -5.625 10.9375 C-6.82692641 12.57058103 -8.02739702 14.20473431 -9.2265625 15.83984375 C-9.85079102 16.6891748 -10.47501953 17.53850586 -11.11816406 18.41357422 C-14.13981122 22.56657499 -17.06887945 26.78285957 -20 31 C-25.56319189 38.98307988 -31.22103252 46.89176623 -36.9375 54.765625 C-38.97634007 57.57612733 -40.99663515 60.39847727 -43 63.234375 C-43.69851074 64.22171631 -43.69851074 64.22171631 -44.41113281 65.22900391 C-45.28303046 66.46371527 -46.15230968 67.70028117 -47.01855469 68.93896484 C-47.98798877 70.31020924 -48.99033846 71.65809941 -50 73 C-50.33 73 -50.66 73 -51 73 C-51.39819236 67.20247246 -51.68687387 61.41299994 -51.87890625 55.60498047 C-51.95896518 53.63482057 -52.06787679 51.66559993 -52.20703125 49.69873047 C-53.29264923 33.9492872 -53.29264923 33.9492872 -49.62164307 29.22686768 C-45.92213269 26.01022696 -41.66303359 23.99362943 -37.20959473 22.01763916 C-33.74832066 20.42353324 -30.55500257 18.42529353 -27.3046875 16.4453125 C-26.06439992 15.71810403 -24.82221652 14.99411894 -23.578125 14.2734375 C-22.96904297 13.91991211 -22.35996094 13.56638672 -21.73242188 13.20214844 C-21.11947266 12.84668945 -20.50652344 12.49123047 -19.875 12.125 C-17.97491674 11.02203905 -16.07532118 9.91827231 -14.17703247 8.81222534 C-12.48227056 7.82485971 -10.78587165 6.84030539 -9.08935547 5.85595703 C-5.98680577 3.99207345 -2.99440489 2.03129549 0 0 Z " fill="#6D8F21" transform="translate(176,136)"/>
</svg>
