<svg width="12" height="13" viewBox="0 0 12 13" fill="none" xmlns="http://www.w3.org/2000/svg">
<g id="Group 42467098">
<g id="Group 42467097">
<g id="Group 42466987">
<g id="3">
<path id="copy-21" fill-rule="evenodd" clip-rule="evenodd" d="M3.61888 5.4906L6.23776 6.987V9.9798L3.61888 11.4762L1 9.9798V6.987L3.61888 5.4906Z" stroke="#03D498"/>
<path id="copy-22" fill-rule="evenodd" clip-rule="evenodd" d="M8.85619 5.4906L11.4751 6.987V9.9798L8.85619 11.4762L6.2373 9.9798V6.987L8.85619 5.4906Z" stroke="#03D498"/>
<path id="line" d="M6.2373 9.93824V6.94543" stroke="#03D498"/>
<path id="copy-23" fill-rule="evenodd" clip-rule="evenodd" d="M6.239 1L8.85788 2.4964V5.4892L6.239 6.9856L3.62012 5.4892V2.4964L6.239 1Z" stroke="#03D498"/>
<path id="line_2" d="M8.85983 5.4906L6.24095 6.987L3.62207 5.4906" stroke="#03D498"/>
<path id="copy-24" fill-rule="evenodd" clip-rule="evenodd" d="M6.239 3.99695L8.85788 5.49335V8.48615L6.239 9.98255L3.62012 8.48615V5.49335L6.239 3.99695Z" stroke="white" stroke-linecap="round"/>
<path id="copy-4" d="M6.24456 7.62437C6.66063 7.62437 6.99792 7.29146 6.99792 6.88079C6.99792 6.47012 6.66063 6.13721 6.24456 6.13721C5.8285 6.13721 5.49121 6.47012 5.49121 6.88079C5.49121 7.29146 5.8285 7.62437 6.24456 7.62437Z" fill="#03D498"/>
</g>
</g>
</g>
</g>
</svg>
